<svg width="28" height="28" viewBox="0 0 28 28" fill="none" xmlns="http://www.w3.org/2000/svg">
<g clip-path="url(#clip0_234_152)">
<path d="M21.7885 0H5.73382C2.5676 0 0 2.5676 0 5.73382V21.7885C0 24.9547 2.5676 27.5223 5.73382 27.5223H21.7885C24.9559 27.5223 27.5223 24.9547 27.5223 21.7885V5.73382C27.5223 2.5676 24.9559 0 21.7885 0ZM9.17411 21.7885H5.73382V9.17411H9.17411V21.7885ZM7.45396 7.72001C6.34619 7.72001 5.44713 6.81407 5.44713 5.69712C5.44713 4.58017 6.34619 3.67423 7.45396 3.67423C8.56174 3.67423 9.4608 4.58017 9.4608 5.69712C9.4608 6.81407 8.56288 7.72001 7.45396 7.72001ZM22.9353 21.7885H19.495V15.362C19.495 11.4997 14.9079 11.7922 14.9079 15.362V21.7885H11.4676V9.17411H14.9079V11.1981C16.5088 8.23262 22.9353 8.01359 22.9353 14.0375V21.7885Z" fill="#1E1E1E"/>
</g>
<defs>
<clipPath id="clip0_234_152">
<rect width="27.5223" height="27.5223" fill="white"/>
</clipPath>
</defs>
</svg>
