<svg width="28" height="28" viewBox="0 0 28 28" fill="none" xmlns="http://www.w3.org/2000/svg">
<g clip-path="url(#clip0_234_148)">
<path d="M13.7612 2.48045C17.4354 2.48045 17.8712 2.49421 19.323 2.56072C23.0522 2.73044 24.7942 4.4999 24.9639 8.20165C25.0304 9.65231 25.043 10.0881 25.043 13.7623C25.043 17.4377 25.0293 17.8723 24.9639 19.323C24.793 23.0213 23.0557 24.7942 19.323 24.9639C17.8712 25.0304 17.4377 25.0442 13.7612 25.0442C10.0869 25.0442 9.65116 25.0304 8.20051 24.9639C4.46206 24.793 2.7293 23.0155 2.55958 19.3218C2.49306 17.8712 2.4793 17.4365 2.4793 13.7612C2.4793 10.0869 2.49421 9.65231 2.55958 8.20051C2.73044 4.4999 4.46779 2.7293 8.20051 2.55958C9.65231 2.49421 10.0869 2.48045 13.7612 2.48045ZM13.7612 0C10.0239 0 9.55598 0.0160547 8.08812 0.082567C3.09053 0.31192 0.313066 3.08479 0.0837137 8.08698C0.0160547 9.55598 0 10.0239 0 13.7612C0 17.4985 0.0160547 17.9675 0.082567 19.4354C0.31192 24.4329 3.08479 27.2104 8.08698 27.4398C9.55598 27.5063 10.0239 27.5223 13.7612 27.5223C17.4985 27.5223 17.9675 27.5063 19.4354 27.4398C24.4284 27.2104 27.2127 24.4375 27.4386 19.4354C27.5063 17.9675 27.5223 17.4985 27.5223 13.7612C27.5223 10.0239 27.5063 9.55598 27.4398 8.08812C27.215 3.09512 24.4387 0.313066 19.4365 0.0837137C17.9675 0.0160547 17.4985 0 13.7612 0ZM13.7612 6.69481C9.85873 6.69481 6.69481 9.85873 6.69481 13.7612C6.69481 17.6636 9.85873 20.8287 13.7612 20.8287C17.6636 20.8287 20.8275 17.6647 20.8275 13.7612C20.8275 9.85873 17.6636 6.69481 13.7612 6.69481ZM13.7612 18.3482C11.228 18.3482 9.17411 16.2955 9.17411 13.7612C9.17411 11.228 11.228 9.17411 13.7612 9.17411C16.2944 9.17411 18.3482 11.228 18.3482 13.7612C18.3482 16.2955 16.2944 18.3482 13.7612 18.3482ZM21.1073 4.7648C20.1945 4.7648 19.4548 5.50447 19.4548 6.41614C19.4548 7.32782 20.1945 8.06748 21.1073 8.06748C22.019 8.06748 22.7575 7.32782 22.7575 6.41614C22.7575 5.50447 22.019 4.7648 21.1073 4.7648Z" fill="#1E1E1E"/>
</g>
<defs>
<clipPath id="clip0_234_148">
<rect width="27.5223" height="27.5223" fill="white"/>
</clipPath>
</defs>
</svg>
